<?xml version="1.0" standalone="no"?>
<!DOCTYPE svg PUBLIC "-//W3C//DTD SVG 20010904//EN"
 "http://www.w3.org/TR/2001/REC-SVG-20010904/DTD/svg10.dtd">
<svg version="1.0" xmlns="http://www.w3.org/2000/svg"
 width="96.000000pt" height="96.000000pt" viewBox="0 0 96.000000 96.000000"
 preserveAspectRatio="xMidYMid meet">
<metadata>
Created by potrace 1.11, written by Peter Selinger 2001-2013
</metadata>
<g transform="translate(0.000000,96.000000) scale(0.100000,-0.100000)"
fill="#000000" stroke="none">
<path d="M263 835 c-92 -46 -173 -146 -175 -216 -1 -35 34 -88 76 -115 23 -15
44 -20 79 -18 26 2 47 -1 47 -6 0 -12 -26 -19 -85 -21 -84 -4 -147 -45 -165
-109 -15 -54 23 -119 77 -133 29 -7 81 27 154 101 30 31 68 68 83 82 l28 25
-8 -40 c-4 -22 -18 -68 -30 -103 -13 -34 -24 -73 -24 -87 0 -26 53 -76 92 -86
40 -10 96 12 129 49 28 32 30 39 25 86 -3 28 -7 62 -9 76 -3 31 10 60 27 60 7
0 21 -18 31 -41 25 -55 54 -73 106 -66 58 8 126 53 179 120 66 80 61 138 -14
182 -66 39 -220 38 -321 -1 -17 -7 -18 -5 -8 8 15 17 7 29 -13 21 -11 -4 -14
7 -14 50 0 55 -19 103 -59 151 -46 53 -136 67 -208 31z"/>
<path d="M584 725 c-14 -25 -24 -48 -22 -51 3 -2 11 9 18 26 7 17 21 37 32 44
11 8 15 17 9 20 -5 4 -22 -14 -37 -39z"/>
<path d="M680 689 c-32 -20 -85 -69 -75 -69 3 0 26 16 51 35 32 25 52 34 66
29 14 -4 19 -2 16 7 -7 21 -21 20 -58 -2z"/>
<path d="M82 133 c2 -10 10 -18 18 -18 22 0 18 29 -3 33 -14 3 -18 -1 -15 -15z"/>
</g>
</svg>
